Altinn-DINExp-Italic.ufo
<glyph name="percent" format="2">
  <advance width="1020"/>
  <unicode hex="0025"/>
  <outline>
    <contour>
      <point x="83" y="329"/>
      <point x="83" y="382" type="qcurve" smooth="yes"/>
      <point x="83" y="410"/>
      <point x="90" y="441" type="qcurve" smooth="yes"/>
      <point x="115" y="554" type="line" smooth="yes"/>
      <point x="131" y="633"/>
      <point x="214" y="714"/>
      <point x="285" y="714" type="qcurve" smooth="yes"/>
      <point x="345" y="714"/>
      <point x="411" y="658"/>
      <point x="411" y="607" type="qcurve" smooth="yes"/>
      <point x="411" y="583"/>
      <point x="403" y="551" type="qcurve" smooth="yes"/>
      <point x="380" y="438" type="line" smooth="yes"/>
      <point x="363" y="354"/>
      <point x="280" y="272"/>
      <point x="208" y="272" type="qcurve" smooth="yes"/>
      <point x="148" y="272"/>
    </contour>
    <contour>
      <point x="755" y="709" type="line"/>
      <point x="833" y="709" type="line"/>
      <point x="305" y="0" type="line"/>
      <point x="228" y="0" type="line"/>
    </contour>
    <contour>
      <point x="288" y="387"/>
      <point x="300" y="441" type="qcurve" smooth="yes"/>
      <point x="322" y="543" type="line" smooth="yes"/>
      <point x="328" y="573"/>
      <point x="328" y="592" type="qcurve" smooth="yes"/>
      <point x="328" y="644"/>
      <point x="274" y="644" type="qcurve" smooth="yes"/>
      <point x="240" y="644"/>
      <point x="205" y="598"/>
      <point x="194" y="546" type="qcurve" smooth="yes"/>
      <point x="172" y="445" type="line" smooth="yes"/>
      <point x="165" y="409"/>
      <point x="165" y="395" type="qcurve" smooth="yes"/>
      <point x="165" y="342"/>
      <point x="219" y="342" type="qcurve" smooth="yes"/>
      <point x="254" y="342"/>
    </contour>
    <contour>
      <point x="649" y="50"/>
      <point x="649" y="103" type="qcurve" smooth="yes"/>
      <point x="649" y="131"/>
      <point x="656" y="163" type="qcurve" smooth="yes"/>
      <point x="680" y="275" type="line" smooth="yes"/>
      <point x="697" y="355"/>
      <point x="779" y="435"/>
      <point x="851" y="435" type="qcurve" smooth="yes"/>
      <point x="911" y="435"/>
      <point x="976" y="380"/>
      <point x="976" y="329" type="qcurve" smooth="yes"/>
      <point x="976" y="310"/>
      <point x="970" y="272" type="qcurve" smooth="yes"/>
      <point x="946" y="160" type="line" smooth="yes"/>
      <point x="928" y="76"/>
      <point x="845" y="-6"/>
      <point x="774" y="-6" type="qcurve" smooth="yes"/>
      <point x="714" y="-6"/>
    </contour>
    <contour>
      <point x="854" y="109"/>
      <point x="865" y="163" type="qcurve" smooth="yes"/>
      <point x="887" y="264" type="line" smooth="yes"/>
      <point x="894" y="298"/>
      <point x="894" y="313" type="qcurve" smooth="yes"/>
      <point x="894" y="365"/>
      <point x="840" y="366" type="qcurve" smooth="yes"/>
      <point x="806" y="366"/>
      <point x="771" y="321"/>
      <point x="759" y="267" type="qcurve" smooth="yes"/>
      <point x="737" y="166" type="line" smooth="yes"/>
      <point x="731" y="137"/>
      <point x="731" y="117" type="qcurve" smooth="yes"/>
      <point x="731" y="63"/>
      <point x="784" y="62" type="qcurve" smooth="yes"/>
      <point x="819" y="62"/>
    </contour>
  </outline>
</glyph>
<glyph name="plus" format="2">
  <advance width="527"/>
  <unicode hex="002B"/>
  <outline>
    <contour>
      <point x="227" y="242" type="line"/>
      <point x="59" y="242" type="line"/>
      <point x="59" y="324" type="line"/>
      <point x="227" y="324" type="line"/>
      <point x="227" y="492" type="line"/>
      <point x="310" y="492" type="line"/>
      <point x="310" y="324" type="line"/>
      <point x="477" y="324" type="line"/>
      <point x="477" y="242" type="line"/>
      <point x="310" y="242" type="line"/>
      <point x="310" y="74" type="line"/>
      <point x="227" y="74" type="line"/>
    </contour>
  </outline>
</glyph>
<glyph name="zero" format="2">
  <advance width="559"/>
  <unicode hex="0030"/>
  <outline>
    <contour>
      <point x="50" y="78"/>
      <point x="50" y="163" type="qcurve" smooth="yes"/>
      <point x="50" y="205"/>
      <point x="61" y="256" type="qcurve" smooth="yes"/>
      <point x="109" y="481" type="line" smooth="yes"/>
      <point x="134" y="598"/>
      <point x="254" y="717"/>
      <point x="356" y="717" type="qcurve" smooth="yes"/>
      <point x="445" y="717"/>
      <point x="549" y="629"/>
      <point x="549" y="545" type="qcurve" smooth="yes"/>
      <point x="549" y="504"/>
      <point x="538" y="453" type="qcurve" smooth="yes"/>
      <point x="490" y="228" type="line" smooth="yes"/>
      <point x="465" y="109"/>
      <point x="344" y="-10"/>
      <point x="242" y="-10" type="qcurve" smooth="yes"/>
      <point x="153" y="-10"/>
    </contour>
    <contour>
      <point x="382" y="153"/>
      <point x="401" y="245" type="qcurve" smooth="yes"/>
      <point x="442" y="442" type="line" smooth="yes"/>
      <point x="454" y="494"/>
      <point x="455" y="532" type="qcurve" smooth="yes"/>
      <point x="455" y="633"/>
      <point x="350" y="634" type="qcurve" smooth="yes"/>
      <point x="285" y="634"/>
      <point x="216" y="553"/>
      <point x="197" y="460" type="qcurve" smooth="yes"/>
      <point x="155" y="264" type="line" smooth="yes"/>
      <point x="144" y="211"/>
      <point x="143" y="176" type="qcurve" smooth="yes"/>
      <point x="143" y="73"/>
      <point x="248" y="73" type="qcurve" smooth="yes"/>
      <point x="312" y="73"/>
    </contour>
  </outline>
</glyph>
<glyph name="seven" format="2">
  <advance width="496"/>
  <unicode hex="0037"/>
  <outline>
    <contour>
      <point x="554" y="707" type="line"/>
      <point x="537" y="624" type="line"/>
      <point x="143" y="0" type="line"/>
      <point x="46" y="0" type="line"/>
      <point x="441" y="624" type="line"/>
      <point x="115" y="624" type="line"/>
      <point x="132" y="707" type="line"/>
    </contour>
  </outline>
</glyph>
<glyph name="nine" format="2">
  <advance width="562"/>
  <unicode hex="0039"/>
  <outline>
    <contour>
      <point x="354" y="303" type="line"/>
      <point x="337" y="294"/>
      <point x="290" y="283"/>
      <point x="265" y="283" type="qcurve" smooth="yes"/>
      <point x="187" y="283"/>
      <point x="99" y="370"/>
      <point x="99" y="444" type="qcurve" smooth="yes"/>
      <point x="99" y="468"/>
      <point x="109" y="513" type="qcurve" smooth="yes"/>
      <point x="128" y="610"/>
      <point x="266" y="717"/>
      <point x="366" y="717" type="qcurve" smooth="yes"/>
      <point x="459" y="717"/>
      <point x="563" y="628"/>
      <point x="563" y="550" type="qcurve" smooth="yes"/>
      <point x="563" y="538"/>
      <point x="558" y="504"/>
      <point x="553" y="480" type="qcurve" smooth="yes"/>
      <point x="545" y="437"/>
      <point x="501" y="354"/>
      <point x="464" y="309" type="qcurve" smooth="yes"/>
      <point x="219" y="0" type="line"/>
      <point x="115" y="0" type="line"/>
    </contour>
    <contour>
      <point x="449" y="428"/>
      <point x="462" y="485" type="qcurve" smooth="yes"/>
      <point x="469" y="522"/>
      <point x="469" y="539" type="qcurve" smooth="yes"/>
      <point x="469" y="585"/>
      <point x="409" y="636"/>
      <point x="354" y="636" type="qcurve" smooth="yes"/>
      <point x="295" y="636"/>
      <point x="214" y="570"/>
      <point x="202" y="512" type="qcurve" smooth="yes"/>
      <point x="194" y="476"/>
      <point x="194" y="460" type="qcurve" smooth="yes"/>
      <point x="194" y="415"/>
      <point x="254" y="364"/>
      <point x="307" y="364" type="qcurve" smooth="yes"/>
      <point x="367" y="364"/>
    </contour>
  </outline>
</glyph>
<glyph name="question" format="2">
  <advance width="494"/>
  <unicode hex="003F"/>
  <outline>
    <contour>
      <point x="189" y="242" type="line" smooth="yes"/>
      <point x="198" y="287"/>
      <point x="232" y="341"/>
      <point x="271" y="373" type="qcurve" smooth="yes"/>
      <point x="339" y="432" type="line" smooth="yes"/>
      <point x="375" y="462"/>
      <point x="409" y="504"/>
      <point x="415" y="530" type="qcurve" smooth="yes"/>
      <point x="420" y="545"/>
      <point x="420" y="559" type="qcurve" smooth="yes"/>
      <point x="420" y="595"/>
      <point x="367" y="635"/>
      <point x="317" y="635" type="qcurve" smooth="yes"/>
      <point x="203" y="635"/>
      <point x="182" y="530" type="qcurve"/>
      <point x="92" y="530" type="line"/>
      <point x="133" y="716"/>
      <point x="333" y="717" type="qcurve" smooth="yes"/>
      <point x="417" y="717"/>
      <point x="511" y="640"/>
      <point x="511" y="571" type="qcurve" smooth="yes"/>
      <point x="511" y="548"/>
      <point x="507" y="531" type="qcurve" smooth="yes"/>
      <point x="500" y="493"/>
      <point x="458" y="431"/>
      <point x="419" y="398" type="qcurve" smooth="yes"/>
      <point x="337" y="327" type="line" smooth="yes"/>
      <point x="309" y="303"/>
      <point x="286" y="266"/>
      <point x="280" y="234" type="qcurve" smooth="yes"/>
      <point x="268" y="187" type="line"/>
      <point x="178" y="187" type="line"/>
    </contour>
    <contour>
      <point x="154" y="105" type="line"/>
      <point x="258" y="105" type="line"/>
      <point x="236" y="0" type="line"/>
      <point x="132" y="0" type="line"/>
    </contour>
  </outline>
</glyph>
<glyph name="B" format="2">
  <advance width="688"/>
  <unicode hex="0042"/>
  <outline>
    <contour>
      <point x="589" y="383"/>
      <point x="521" y="364" type="qcurve"/>
      <point x="567" y="349"/>
      <point x="614" y="279"/>
      <point x="614" y="230" type="qcurve" smooth="yes"/>
      <point x="614" y="158"/>
      <point x="544" y="55"/>
      <point x="416" y="0"/>
      <point x="332" y="0" type="qcurve" smooth="yes"/>
      <point x="19" y="0" type="line"/>
      <point x="170" y="707" type="line"/>
      <point x="468" y="707" type="line" smooth="yes"/>
      <point x="566" y="707"/>
      <point x="671" y="627"/>
      <point x="671" y="554" type="qcurve" smooth="yes"/>
      <point x="671" y="486"/>
    </contour>
    <contour>
      <point x="575" y="473"/>
      <point x="575" y="538" type="qcurve" smooth="yes"/>
      <point x="575" y="583"/>
      <point x="517" y="625"/>
      <point x="458" y="625" type="qcurve" smooth="yes"/>
      <point x="246" y="625" type="line"/>
      <point x="199" y="401" type="line"/>
      <point x="397" y="401" type="line" smooth="yes"/>
      <point x="478" y="401"/>
    </contour>
    <contour>
      <point x="521" y="159"/>
      <point x="521" y="226" type="qcurve" smooth="yes"/>
      <point x="521" y="319"/>
      <point x="394" y="319" type="qcurve" smooth="yes"/>
      <point x="180" y="319" type="line"/>
      <point x="130" y="82" type="line"/>
      <point x="337" y="82" type="line" smooth="yes"/>
      <point x="424" y="82"/>
    </contour>
  </outline>
</glyph>
<glyph name="N" format="2">
  <advance width="735"/>
  <unicode hex="004E"/>
  <outline>
    <contour>
      <point x="755" y="707" type="line"/>
      <point x="604" y="0" type="line"/>
      <point x="512" y="0" type="line"/>
      <point x="230" y="554" type="line"/>
      <point x="113" y="0" type="line"/>
      <point x="19" y="0" type="line"/>
      <point x="170" y="707" type="line"/>
      <point x="263" y="707" type="line"/>
      <point x="545" y="152" type="line"/>
      <point x="663" y="707" type="line"/>
    </contour>
  </outline>
</glyph>
<glyph name="Q" format="2">
  <advance width="698"/>
  <unicode hex="0051"/>
  <outline>
    <contour>
      <point x="677" y="603"/>
      <point x="677" y="495" type="qcurve" smooth="yes"/>
      <point x="677" y="455"/>
      <point x="668" y="406" type="qcurve" smooth="yes"/>
      <point x="643" y="288" type="line" smooth="yes"/>
      <point x="603" y="97"/>
      <point x="478" y="27" type="qcurve"/>
      <point x="527" y="-121" type="line"/>
      <point x="445" y="-156" type="line"/>
      <point x="395" y="-2" type="line"/>
      <point x="361" y="-10"/>
      <point x="314" y="-10" type="qcurve" smooth="yes"/>
      <point x="196" y="-10"/>
      <point x="61" y="104"/>
      <point x="61" y="213" type="qcurve" smooth="yes"/>
      <point x="61" y="255"/>
      <point x="71" y="302" type="qcurve" smooth="yes"/>
      <point x="96" y="420" type="line" smooth="yes"/>
      <point x="128" y="574"/>
      <point x="293" y="718"/>
      <point x="425" y="718" type="qcurve" smooth="yes"/>
      <point x="541" y="718"/>
    </contour>
    <contour>
      <point x="584" y="482" type="qcurve" smooth="yes"/>
      <point x="584" y="558"/>
      <point x="499" y="635"/>
      <point x="420" y="635" type="qcurve" smooth="yes"/>
      <point x="325" y="635"/>
      <point x="213" y="530"/>
      <point x="187" y="414" type="qcurve" smooth="yes"/>
      <point x="163" y="299" type="line" smooth="yes"/>
      <point x="154" y="258"/>
      <point x="154" y="223" type="qcurve" smooth="yes"/>
      <point x="154" y="148"/>
      <point x="240" y="74"/>
      <point x="321" y="74" type="qcurve" smooth="yes"/>
      <point x="414" y="74"/>
      <point x="525" y="177"/>
      <point x="550" y="290" type="qcurve" smooth="yes"/>
      <point x="574" y="403" type="line" smooth="yes"/>
      <point x="584" y="448"/>
    </contour>
  </outline>
</glyph>
<glyph name="U" format="2">
  <advance width="706"/>
  <unicode hex="0055"/>
  <outline>
    <contour>
      <point x="68" y="101"/>
      <point x="68" y="197" type="qcurve" smooth="yes"/>
      <point x="68" y="222"/>
      <point x="75" y="259" type="qcurve" smooth="yes"/>
      <point x="170" y="707" type="line"/>
      <point x="263" y="707" type="line"/>
      <point x="168" y="258" type="line" smooth="yes"/>
      <point x="162" y="230"/>
      <point x="162" y="206" type="qcurve" smooth="yes"/>
      <point x="162" y="143"/>
      <point x="243" y="76"/>
      <point x="321" y="76" type="qcurve" smooth="yes"/>
      <point x="411" y="76"/>
      <point x="517" y="165"/>
      <point x="537" y="254" type="qcurve" smooth="yes"/>
      <point x="633" y="707" type="line"/>
      <point x="726" y="707" type="line"/>
      <point x="628" y="246" type="line" smooth="yes"/>
      <point x="602" y="126"/>
      <point x="439" y="-6"/>
      <point x="312" y="-6" type="qcurve" smooth="yes"/>
      <point x="199" y="-6"/>
    </contour>
  </outline>
</glyph>
<glyph name="W" format="2">
  <advance width="924"/>
  <unicode hex="0057"/>
  <outline>
    <contour>
      <point x="1015" y="707" type="line"/>
      <point x="664" y="0" type="line"/>
      <point x="577" y="0" type="line"/>
      <point x="535" y="596" type="line"/>
      <point x="242" y="0" type="line"/>
      <point x="155" y="0" type="line"/>
      <point x="99" y="707" type="line"/>
      <point x="189" y="707" type="line"/>
      <point x="226" y="132" type="line"/>
      <point x="498" y="707" type="line"/>
      <point x="612" y="707" type="line"/>
      <point x="649" y="132" type="line"/>
      <point x="921" y="707" type="line"/>
    </contour>
  </outline>
</glyph>
<glyph name="X" format="2">
  <advance width="657"/>
  <unicode hex="0058"/>
  <outline>
    <contour>
      <point x="296" y="371" type="line"/>
      <point x="120" y="707" type="line"/>
      <point x="227" y="707" type="line"/>
      <point x="364" y="440" type="line"/>
      <point x="604" y="707" type="line"/>
      <point x="723" y="707" type="line"/>
      <point x="406" y="368" type="line"/>
      <point x="597" y="0" type="line"/>
      <point x="488" y="0" type="line"/>
      <point x="338" y="298" type="line"/>
      <point x="69" y="0" type="line"/>
      <point x="-51" y="0" type="line"/>
    </contour>
  </outline>
</glyph>
<glyph name="f" format="2">
  <advance width="370"/>
  <unicode hex="0066"/>
  <outline>
    <contour>
      <point x="282" y="607"/>
      <point x="273" y="567" type="qcurve" smooth="yes"/>
      <point x="264" y="523" type="line"/>
      <point x="390" y="523" type="line"/>
      <point x="377" y="458" type="line"/>
      <point x="250" y="458" type="line"/>
      <point x="154" y="0" type="line"/>
      <point x="67" y="0" type="line"/>
      <point x="163" y="458" type="line"/>
      <point x="88" y="458" type="line"/>
      <point x="102" y="523" type="line"/>
      <point x="177" y="523" type="line"/>
      <point x="185" y="563" type="line" smooth="yes"/>
      <point x="216" y="706"/>
      <point x="362" y="707" type="qcurve" smooth="yes"/>
      <point x="429" y="707" type="line"/>
      <point x="415" y="642" type="line"/>
      <point x="368" y="642" type="line" smooth="yes"/>
      <point x="326" y="642"/>
    </contour>
  </outline>
</glyph>
<glyph name="m" format="2">
  <advance width="928"/>
  <unicode hex="006D"/>
  <outline>
    <contour>
      <point x="126" y="523" type="line"/>
      <point x="212" y="523" type="line"/>
      <point x="197" y="455" type="line"/>
      <point x="230" y="491"/>
      <point x="316" y="529"/>
      <point x="367" y="529" type="qcurve" smooth="yes"/>
      <point x="424" y="529"/>
      <point x="502" y="480"/>
      <point x="516" y="436" type="qcurve"/>
      <point x="559" y="486"/>
      <point x="653" y="529"/>
      <point x="711" y="529" type="qcurve" smooth="yes"/>
      <point x="790" y="529"/>
      <point x="878" y="450"/>
      <point x="878" y="379" type="qcurve" smooth="yes"/>
      <point x="878" y="352"/>
      <point x="869" y="311" type="qcurve" smooth="yes"/>
      <point x="802" y="0" type="line"/>
      <point x="715" y="0" type="line"/>
      <point x="779" y="299" type="line" smooth="yes"/>
      <point x="786" y="333"/>
      <point x="786" y="356" type="qcurve" smooth="yes"/>
      <point x="786" y="402"/>
      <point x="732" y="452"/>
      <point x="684" y="452" type="qcurve" smooth="yes"/>
      <point x="617" y="452"/>
      <point x="531" y="371"/>
      <point x="515" y="296" type="qcurve" smooth="yes"/>
      <point x="453" y="0" type="line"/>
      <point x="365" y="0" type="line"/>
      <point x="428" y="299" type="line" smooth="yes"/>
      <point x="436" y="337"/>
      <point x="436" y="356" type="qcurve" smooth="yes"/>
      <point x="436" y="402"/>
      <point x="382" y="452"/>
      <point x="334" y="452" type="qcurve" smooth="yes"/>
      <point x="269" y="452"/>
      <point x="181" y="370"/>
      <point x="165" y="294" type="qcurve" smooth="yes"/>
      <point x="102" y="0" type="line"/>
      <point x="15" y="0" type="line"/>
    </contour>
  </outline>
</glyph>
<glyph name="n" format="2">
  <advance width="584"/>
  <unicode hex="006E"/>
  <outline>
    <contour>
      <point x="126" y="523" type="line"/>
      <point x="212" y="523" type="line"/>
      <point x="197" y="455" type="line"/>
      <point x="264" y="530"/>
      <point x="370" y="529" type="qcurve" smooth="yes"/>
      <point x="448" y="529"/>
      <point x="535" y="450"/>
      <point x="535" y="379" type="qcurve" smooth="yes"/>
      <point x="535" y="351"/>
      <point x="525" y="311" type="qcurve" smooth="yes"/>
      <point x="459" y="0" type="line"/>
      <point x="372" y="0" type="line"/>
      <point x="435" y="299" type="line" smooth="yes"/>
      <point x="443" y="337"/>
      <point x="443" y="357" type="qcurve" smooth="yes"/>
      <point x="443" y="403"/>
      <point x="388" y="452"/>
      <point x="337" y="452" type="qcurve" smooth="yes"/>
      <point x="270" y="452"/>
      <point x="181" y="370"/>
      <point x="165" y="294" type="qcurve" smooth="yes"/>
      <point x="102" y="0" type="line"/>
      <point x="15" y="0" type="line"/>
    </contour>
  </outline>
</glyph>
<glyph name="r" format="2">
  <advance width="386"/>
  <unicode hex="0072"/>
  <outline>
    <contour>
      <point x="126" y="523" type="line"/>
      <point x="212" y="523" type="line"/>
      <point x="196" y="452" type="line"/>
      <point x="263" y="532"/>
      <point x="373" y="531" type="qcurve" smooth="yes"/>
      <point x="399" y="531"/>
      <point x="419" y="528" type="qcurve"/>
      <point x="400" y="443" type="line"/>
      <point x="374" y="452"/>
      <point x="339" y="453" type="qcurve" smooth="yes"/>
      <point x="273" y="453"/>
      <point x="181" y="371"/>
      <point x="165" y="296" type="qcurve" smooth="yes"/>
      <point x="102" y="0" type="line"/>
      <point x="15" y="0" type="line"/>
    </contour>
  </outline>
</glyph>
<glyph name="x" format="2">
  <advance width="499"/>
  <unicode hex="0078"/>
  <outline>
    <contour>
      <point x="298" y="269" type="line"/>
      <point x="430" y="0" type="line"/>
      <point x="340" y="0" type="line"/>
      <point x="240" y="205" type="line"/>
      <point x="58" y="0" type="line"/>
      <point x="-42" y="0" type="line"/>
      <point x="206" y="273" type="line"/>
      <point x="83" y="523" type="line"/>
      <point x="174" y="523" type="line"/>
      <point x="266" y="336" type="line"/>
      <point x="432" y="523" type="line"/>
      <point x="531" y="523" type="line"/>
    </contour>
  </outline>
</glyph>
<glyph name="asciitilde" format="2">
  <advance width="527"/>
  <unicode hex="007E"/>
  <outline>
    <contour>
      <point x="281" y="230"/>
      <point x="254" y="248" type="qcurve" smooth="yes"/>
      <point x="230" y="262"/>
      <point x="201" y="275"/>
      <point x="184" y="275" type="qcurve" smooth="yes"/>
      <point x="160" y="275"/>
      <point x="127" y="249"/>
      <point x="108" y="215" type="qcurve"/>
      <point x="48" y="252" type="line"/>
      <point x="71" y="301"/>
      <point x="140" y="352"/>
      <point x="183" y="352" type="qcurve" smooth="yes"/>
      <point x="209" y="352"/>
      <point x="251" y="335"/>
      <point x="279" y="317" type="qcurve" smooth="yes"/>
      <point x="303" y="303"/>
      <point x="332" y="290"/>
      <point x="349" y="290" type="qcurve" smooth="yes"/>
      <point x="373" y="290"/>
      <point x="408" y="316"/>
      <point x="426" y="349" type="qcurve"/>
      <point x="485" y="312" type="line"/>
      <point x="462" y="263"/>
      <point x="392" y="212"/>
      <point x="349" y="212" type="qcurve" smooth="yes"/>
      <point x="324" y="212"/>
    </contour>
  </outline>
</glyph>
<glyph name="brokenbar" format="2">
  <advance width="482"/>
  <unicode hex="00A6"/>
  <outline>
    <contour>
      <point x="215" y="758" type="line"/>
      <point x="299" y="758" type="line"/>
      <point x="299" y="397" type="line"/>
      <point x="215" y="397" type="line"/>
    </contour>
    <contour>
      <point x="215" y="278" type="line"/>
      <point x="299" y="278" type="line"/>
      <point x="299" y="-85" type="line"/>
      <point x="215" y="-85" type="line"/>
    </contour>
  </outline>
</glyph>
<glyph name="section" format="2">
  <advance width="570"/>
  <unicode hex="00A7"/>
  <outline>
    <contour>
      <point x="29" y="-108"/>
      <point x="29" y="-47" type="qcurve" smooth="yes"/>
      <point x="29" y="-30"/>
      <point x="34" y="-2" type="qcurve"/>
      <point x="118" y="-2" type="line"/>
      <point x="115" y="-16"/>
      <point x="115" y="-29" type="qcurve" smooth="yes"/>
      <point x="115" y="-95"/>
      <point x="207" y="-94" type="qcurve" smooth="yes"/>
      <point x="258" y="-94"/>
      <point x="321" y="-53"/>
      <point x="329" y="-14" type="qcurve" smooth="yes"/>
      <point x="331" y="-5"/>
      <point x="331" y="8" type="qcurve" smooth="yes"/>
      <point x="331" y="42"/>
      <point x="275" y="79"/>
      <point x="208" y="94" type="qcurve" smooth="yes"/>
      <point x="150" y="107"/>
      <point x="75" y="175"/>
      <point x="75" y="234" type="qcurve" smooth="yes"/>
      <point x="75" y="254"/>
      <point x="80" y="284" type="qcurve" smooth="yes"/>
      <point x="92" y="344"/>
      <point x="166" y="428"/>
      <point x="223" y="443" type="qcurve"/>
      <point x="163" y="476"/>
      <point x="163" y="545" type="qcurve" smooth="yes"/>
      <point x="163" y="599"/>
      <point x="219" y="685"/>
      <point x="317" y="732"/>
      <point x="380" y="732" type="qcurve" smooth="yes"/>
      <point x="458" y="732"/>
      <point x="544" y="667"/>
      <point x="544" y="609" type="qcurve" smooth="yes"/>
      <point x="544" y="586"/>
      <point x="540" y="566" type="qcurve"/>
      <point x="456" y="566" type="line"/>
      <point x="459" y="580"/>
      <point x="459" y="591" type="qcurve" smooth="yes"/>
      <point x="459" y="622"/>
      <point x="414" y="654"/>
      <point x="370" y="654" type="qcurve" smooth="yes"/>
      <point x="317" y="654"/>
      <point x="253" y="602"/>
      <point x="253" y="555" type="qcurve" smooth="yes"/>
      <point x="253" y="522"/>
      <point x="306" y="486"/>
      <point x="372" y="470" type="qcurve" smooth="yes"/>
      <point x="434" y="454"/>
      <point x="505" y="389"/>
      <point x="505" y="331" type="qcurve" smooth="yes"/>
      <point x="505" y="308"/>
      <point x="499" y="282" type="qcurve" smooth="yes"/>
      <point x="488" y="221"/>
      <point x="412" y="137"/>
      <point x="357" y="122" type="qcurve"/>
      <point x="422" y="91"/>
      <point x="422" y="26" type="qcurve" smooth="yes"/>
      <point x="422" y="11"/>
      <point x="417" y="-15" type="qcurve" smooth="yes"/>
      <point x="402" y="-88"/>
      <point x="287" y="-172"/>
      <point x="201" y="-172" type="qcurve" smooth="yes"/>
      <point x="120" y="-172"/>
    </contour>
    <contour>
      <point x="400" y="227"/>
      <point x="412" y="281" type="qcurve" smooth="yes"/>
      <point x="415" y="298"/>
      <point x="415" y="312" type="qcurve" smooth="yes"/>
      <point x="415" y="351"/>
      <point x="362" y="393"/>
      <point x="313" y="393" type="qcurve" smooth="yes"/>
      <point x="254" y="393"/>
      <point x="178" y="337"/>
      <point x="168" y="284" type="qcurve" smooth="yes"/>
      <point x="164" y="261"/>
      <point x="164" y="252" type="qcurve" smooth="yes"/>
      <point x="164" y="214"/>
      <point x="217" y="172"/>
      <point x="266" y="172" type="qcurve" smooth="yes"/>
      <point x="326" y="172"/>
    </contour>
  </outline>
</glyph>
<glyph name="copyright" format="2">
  <advance width="846"/>
  <unicode hex="00A9"/>
  <outline>
    <contour>
      <point x="178" y="81"/>
      <point x="90" y="244"/>
      <point x="90" y="349" type="qcurve" smooth="yes"/>
      <point x="90" y="454"/>
      <point x="178" y="617"/>
      <point x="339" y="708"/>
      <point x="442" y="708" type="qcurve" smooth="yes"/>
      <point x="545" y="708"/>
      <point x="706" y="617"/>
      <point x="794" y="455"/>
      <point x="794" y="349" type="qcurve" smooth="yes"/>
      <point x="794" y="244"/>
      <point x="706" y="81"/>
      <point x="546" y="-10"/>
      <point x="442" y="-10" type="qcurve" smooth="yes"/>
      <point x="338" y="-10"/>
    </contour>
    <contour>
      <point x="658" y="125"/>
      <point x="728" y="260"/>
      <point x="728" y="349" type="qcurve" smooth="yes"/>
      <point x="728" y="438"/>
      <point x="657" y="573"/>
      <point x="528" y="646"/>
      <point x="442" y="646" type="qcurve" smooth="yes"/>
      <point x="355" y="646"/>
      <point x="226" y="573"/>
      <point x="156" y="438"/>
      <point x="156" y="349" type="qcurve" smooth="yes"/>
      <point x="156" y="260"/>
      <point x="226" y="125"/>
      <point x="355" y="52"/>
      <point x="442" y="52" type="qcurve" smooth="yes"/>
      <point x="529" y="52"/>
    </contour>
    <contour>
      <point x="274" y="240"/>
      <point x="274" y="326" type="qcurve" smooth="yes"/>
      <point x="274" y="375" type="line" smooth="yes"/>
      <point x="274" y="461"/>
      <point x="367" y="549"/>
      <point x="444" y="549" type="qcurve" smooth="yes"/>
      <point x="518" y="549"/>
      <point x="605" y="477"/>
      <point x="605" y="415" type="qcurve" smooth="yes"/>
      <point x="605" y="412" type="line"/>
      <point x="539" y="412" type="line"/>
      <point x="539" y="414" type="line" smooth="yes"/>
      <point x="539" y="450"/>
      <point x="489" y="489"/>
      <point x="446" y="489" type="qcurve" smooth="yes"/>
      <point x="341" y="489"/>
      <point x="341" y="373" type="qcurve" smooth="yes"/>
      <point x="341" y="328" type="line" smooth="yes"/>
      <point x="341" y="266"/>
      <point x="396" y="210"/>
      <point x="447" y="210" type="qcurve" smooth="yes"/>
      <point x="490" y="210"/>
      <point x="539" y="250"/>
      <point x="539" y="286" type="qcurve" smooth="yes"/>
      <point x="539" y="289" type="line"/>
      <point x="604" y="289" type="line"/>
      <point x="604" y="285" type="line" smooth="yes"/>
      <point x="604" y="224"/>
      <point x="518" y="152"/>
      <point x="444" y="152" type="qcurve" smooth="yes"/>
      <point x="367" y="152"/>
    </contour>
  </outline>
</glyph>
<glyph name="registered" format="2">
  <advance width="546"/>
  <unicode hex="00AE"/>
  <outline>
    <contour>
      <point x="183" y="366"/>
      <point x="133" y="456"/>
      <point x="133" y="511" type="qcurve" smooth="yes"/>
      <point x="133" y="566"/>
      <point x="183" y="655"/>
      <point x="271" y="707"/>
      <point x="326" y="707" type="qcurve" smooth="yes"/>
      <point x="381" y="707"/>
      <point x="469" y="655"/>
      <point x="519" y="565"/>
      <point x="519" y="511" type="qcurve" smooth="yes"/>
      <point x="519" y="455"/>
      <point x="469" y="366"/>
      <point x="381" y="314"/>
      <point x="326" y="314" type="qcurve" smooth="yes"/>
      <point x="271" y="314"/>
    </contour>
    <contour>
      <point x="482" y="439"/>
      <point x="482" y="511" type="qcurve" smooth="yes"/>
      <point x="482" y="581"/>
      <point x="394" y="672"/>
      <point x="326" y="672" type="qcurve" smooth="yes"/>
      <point x="258" y="672"/>
      <point x="170" y="581"/>
      <point x="170" y="511" type="qcurve" smooth="yes"/>
      <point x="170" y="439"/>
      <point x="258" y="348"/>
      <point x="326" y="348" type="qcurve" smooth="yes"/>
      <point x="394" y="348"/>
    </contour>
    <contour>
      <point x="252" y="621" type="line"/>
      <point x="338" y="621" type="line" smooth="yes"/>
      <point x="374" y="621"/>
      <point x="412" y="587"/>
      <point x="412" y="555" type="qcurve" smooth="yes"/>
      <point x="412" y="511"/>
      <point x="373" y="495" type="qcurve"/>
      <point x="417" y="402" type="line"/>
      <point x="372" y="402" type="line"/>
      <point x="331" y="489" type="line"/>
      <point x="294" y="489" type="line"/>
      <point x="294" y="402" type="line"/>
      <point x="252" y="402" type="line"/>
    </contour>
    <contour>
      <point x="336" y="526" type="line" smooth="yes"/>
      <point x="370" y="526"/>
      <point x="370" y="555" type="qcurve" smooth="yes"/>
      <point x="370" y="585"/>
      <point x="336" y="585" type="qcurve" smooth="yes"/>
      <point x="294" y="585" type="line"/>
      <point x="294" y="526" type="line"/>
    </contour>
  </outline>
</glyph>
<glyph name="plusminus" format="2">
  <advance width="527"/>
  <unicode hex="00B1"/>
  <outline>
    <contour>
      <point x="205" y="287" type="line"/>
      <point x="37" y="287" type="line"/>
      <point x="37" y="369" type="line"/>
      <point x="205" y="369" type="line"/>
      <point x="205" y="537" type="line"/>
      <point x="288" y="537" type="line"/>
      <point x="288" y="369" type="line"/>
      <point x="456" y="369" type="line"/>
      <point x="456" y="287" type="line"/>
      <point x="288" y="287" type="line"/>
      <point x="288" y="118" type="line"/>
      <point x="205" y="118" type="line"/>
    </contour>
    <contour>
      <point x="37" y="69" type="line"/>
      <point x="456" y="69" type="line"/>
      <point x="456" y="-14" type="line"/>
      <point x="37" y="-14" type="line"/>
    </contour>
  </outline>
</glyph>
<glyph name="uni00B2" format="2">
  <advance width="412"/>
  <unicode hex="00B2"/>
  <outline>
    <contour>
      <point x="119" y="503" type="line"/>
      <point x="314" y="675" type="line" smooth="yes"/>
      <point x="344" y="700"/>
      <point x="372" y="742"/>
      <point x="372" y="764" type="qcurve" smooth="yes"/>
      <point x="372" y="786"/>
      <point x="343" y="809"/>
      <point x="316" y="809" type="qcurve" smooth="yes"/>
      <point x="287" y="809"/>
      <point x="249" y="780"/>
      <point x="245" y="753" type="qcurve" smooth="yes"/>
      <point x="244" y="743" type="line"/>
      <point x="166" y="743" type="line"/>
      <point x="168" y="755" type="line" smooth="yes"/>
      <point x="178" y="812"/>
      <point x="263" y="876"/>
      <point x="328" y="876" type="qcurve" smooth="yes"/>
      <point x="387" y="876"/>
      <point x="456" y="821"/>
      <point x="456" y="776" type="qcurve" smooth="yes"/>
      <point x="456" y="733"/>
      <point x="409" y="664"/>
      <point x="364" y="627" type="qcurve" smooth="yes"/>
      <point x="237" y="510" type="line"/>
      <point x="401" y="510" type="line"/>
      <point x="387" y="440" type="line"/>
      <point x="104" y="440" type="line"/>
    </contour>
  </outline>
</glyph>
<glyph name="uni00B5" format="2">
  <advance width="581"/>
  <unicode hex="00B5"/>
  <outline>
    <contour>
      <point x="126" y="523" type="line"/>
      <point x="213" y="523" type="line"/>
      <point x="148" y="220" type="line" smooth="yes"/>
      <point x="141" y="185"/>
      <point x="141" y="161" type="qcurve" smooth="yes"/>
      <point x="141" y="118"/>
      <point x="197" y="71"/>
      <point x="246" y="71" type="qcurve" smooth="yes"/>
      <point x="309" y="71"/>
      <point x="400" y="153"/>
      <point x="416" y="226" type="qcurve" smooth="yes"/>
      <point x="479" y="523" type="line"/>
      <point x="567" y="523" type="line"/>
      <point x="456" y="0" type="line"/>
      <point x="370" y="0" type="line"/>
      <point x="384" y="68" type="line"/>
      <point x="317" y="-7"/>
      <point x="215" y="-7" type="qcurve" smooth="yes"/>
      <point x="145" y="-7"/>
      <point x="110" y="33" type="qcurve"/>
      <point x="69" y="-157" type="line"/>
      <point x="-18" y="-157" type="line"/>
    </contour>
  </outline>
</glyph>
<glyph name="ordmasculine" format="2">
  <advance width="376"/>
  <unicode hex="00BA"/>
  <outline>
    <contour>
      <point x="105" y="494"/>
      <point x="105" y="546" type="qcurve" smooth="yes"/>
      <point x="105" y="568"/>
      <point x="110" y="589" type="qcurve" smooth="yes"/>
      <point x="119" y="629" type="line" smooth="yes"/>
      <point x="148" y="766"/>
      <point x="285" y="766" type="qcurve" smooth="yes"/>
      <point x="344" y="766"/>
      <point x="415" y="708"/>
      <point x="415" y="655" type="qcurve" smooth="yes"/>
      <point x="415" y="635"/>
      <point x="411" y="614" type="qcurve" smooth="yes"/>
      <point x="402" y="573" type="line" smooth="yes"/>
      <point x="389" y="504"/>
      <point x="304" y="436"/>
      <point x="237" y="436" type="qcurve" smooth="yes"/>
      <point x="177" y="436"/>
    </contour>
    <contour>
      <point x="322" y="541"/>
      <point x="330" y="580" type="qcurve" smooth="yes"/>
      <point x="337" y="615" type="line" smooth="yes"/>
      <point x="340" y="629"/>
      <point x="340" y="643" type="qcurve" smooth="yes"/>
      <point x="340" y="671"/>
      <point x="305" y="699"/>
      <point x="275" y="699" type="qcurve" smooth="yes"/>
      <point x="207" y="699"/>
      <point x="191" y="624" type="qcurve" smooth="yes"/>
      <point x="183" y="587" type="line" smooth="yes"/>
      <point x="180" y="574"/>
      <point x="180" y="561" type="qcurve" smooth="yes"/>
      <point x="180" y="531"/>
      <point x="216" y="503"/>
      <point x="246" y="503" type="qcurve" smooth="yes"/>
      <point x="281" y="503"/>
    </contour>
    <contour>
      <point x="31" y="717" type="move" smooth="yes"/>
    </contour>
  </outline>
</glyph>
<glyph name="questiondown" format="2">
  <advance width="494"/>
  <unicode hex="00BF"/>
  <outline>
    <contour>
      <point x="258" y="523" type="line"/>
      <point x="362" y="523" type="line"/>
      <point x="340" y="418" type="line"/>
      <point x="236" y="418" type="line"/>
    </contour>
    <contour>
      <point x="-12" y="-89"/>
      <point x="-12" y="-22" type="qcurve" smooth="yes"/>
      <point x="-12" y="30"/>
      <point x="36" y="115"/>
      <point x="83" y="154" type="qcurve" smooth="yes"/>
      <point x="158" y="215" type="line" smooth="yes"/>
      <point x="188" y="240"/>
      <point x="211" y="279"/>
      <point x="219" y="312" type="qcurve" smooth="yes"/>
      <point x="224" y="338" type="line"/>
      <point x="315" y="338" type="line"/>
      <point x="307" y="305" type="line" smooth="yes"/>
      <point x="297" y="257"/>
      <point x="264" y="202"/>
      <point x="223" y="169" type="qcurve" smooth="yes"/>
      <point x="160" y="118" type="line" smooth="yes"/>
      <point x="120" y="85"/>
      <point x="80" y="27"/>
      <point x="80" y="-10" type="qcurve" smooth="yes"/>
      <point x="80" y="-46"/>
      <point x="133" y="-85"/>
      <point x="183" y="-85" type="qcurve" smooth="yes"/>
      <point x="241" y="-85"/>
      <point x="307" y="-33"/>
      <point x="317" y="19" type="qcurve"/>
      <point x="407" y="19" type="line"/>
      <point x="371" y="-167"/>
      <point x="170" y="-167" type="qcurve" smooth="yes"/>
      <point x="86" y="-167"/>
    </contour>
  </outline>
</glyph>
<glyph name="multiply" format="2">
  <advance width="527"/>
  <unicode hex="00D7"/>
  <outline>
    <contour>
      <point x="88" y="158" type="line"/>
      <point x="213" y="284" type="line"/>
      <point x="88" y="409" type="line"/>
      <point x="143" y="464" type="line"/>
      <point x="268" y="339" type="line"/>
      <point x="393" y="464" type="line"/>
      <point x="449" y="408" type="line"/>
      <point x="324" y="284" type="line"/>
      <point x="449" y="158" type="line"/>
      <point x="393" y="102" type="line"/>
      <point x="268" y="227" type="line"/>
      <point x="143" y="102" type="line"/>
    </contour>
  </outline>
</glyph>
<glyph name="germandbls" format="2">
  <advance width="574"/>
  <unicode hex="00DF"/>
  <outline>
    <contour>
      <point x="242" y="73" type="line"/>
      <point x="274" y="73" type="line" smooth="yes"/>
      <point x="322" y="73"/>
      <point x="379" y="103"/>
      <point x="412" y="170"/>
      <point x="425" y="230" type="qcurve" smooth="yes"/>
      <point x="437" y="288"/>
      <point x="437" y="314" type="qcurve" smooth="yes"/>
      <point x="437" y="356"/>
      <point x="390" y="393"/>
      <point x="335" y="393" type="qcurve" smooth="yes"/>
      <point x="310" y="393" type="line"/>
      <point x="326" y="469" type="line"/>
      <point x="358" y="469" type="line" smooth="yes"/>
      <point x="417" y="469"/>
      <point x="485" y="521"/>
      <point x="485" y="569" type="qcurve" smooth="yes"/>
      <point x="485" y="638"/>
      <point x="374" y="638" type="qcurve" smooth="yes"/>
      <point x="300" y="638"/>
      <point x="225" y="580"/>
      <point x="210" y="508" type="qcurve" smooth="yes"/>
      <point x="102" y="0" type="line"/>
      <point x="15" y="0" type="line"/>
      <point x="122" y="506" type="line" smooth="yes"/>
      <point x="145" y="612"/>
      <point x="266" y="715"/>
      <point x="380" y="715" type="qcurve" smooth="yes"/>
      <point x="473" y="715"/>
      <point x="575" y="645"/>
      <point x="575" y="583" type="qcurve" smooth="yes"/>
      <point x="575" y="532"/>
      <point x="520" y="452"/>
      <point x="469" y="433" type="qcurve"/>
      <point x="500" y="417"/>
      <point x="527" y="369"/>
      <point x="527" y="332" type="qcurve" smooth="yes"/>
      <point x="527" y="294"/>
      <point x="513" y="227" type="qcurve" smooth="yes"/>
      <point x="494" y="140"/>
      <point x="436" y="41"/>
      <point x="341" y="-4"/>
      <point x="264" y="-4" type="qcurve" smooth="yes"/>
      <point x="226" y="-4" type="line"/>
    </contour>
  </outline>
</glyph>
<glyph name="oslash" format="2">
  <advance width="577"/>
  <unicode hex="00F8"/>
  <outline>
    <contour>
      <point x="500" y="462" type="line"/>
      <point x="534" y="417"/>
      <point x="534" y="349" type="qcurve" smooth="yes"/>
      <point x="534" y="318"/>
      <point x="525" y="280" type="qcurve" smooth="yes"/>
      <point x="512" y="216" type="line" smooth="yes"/>
      <point x="489" y="103"/>
      <point x="354" y="-9"/>
      <point x="254" y="-9" type="qcurve" smooth="yes"/>
      <point x="165" y="-9"/>
      <point x="113" y="30" type="qcurve"/>
      <point x="58" y="-31" type="line"/>
      <point x="-3" y="-31" type="line"/>
      <point x="79" y="61" type="line"/>
      <point x="45" y="106"/>
      <point x="45" y="175" type="qcurve" smooth="yes"/>
      <point x="45" y="209"/>
      <point x="52" y="245" type="qcurve" smooth="yes"/>
      <point x="65" y="308" type="line" smooth="yes"/>
      <point x="89" y="420"/>
      <point x="222" y="532"/>
      <point x="325" y="532" type="qcurve" smooth="yes"/>
      <point x="413" y="532"/>
      <point x="467" y="494" type="qcurve"/>
      <point x="517" y="550" type="line"/>
      <point x="579" y="550" type="line"/>
    </contour>
    <contour>
      <point x="142" y="131" type="qcurve"/>
      <point x="409" y="428" type="line"/>
      <point x="376" y="455"/>
      <point x="317" y="455" type="qcurve" smooth="yes"/>
      <point x="251" y="455"/>
      <point x="168" y="383"/>
      <point x="151" y="300" type="qcurve" smooth="yes"/>
      <point x="138" y="242" type="line" smooth="yes"/>
      <point x="132" y="210"/>
      <point x="132" y="185" type="qcurve" smooth="yes"/>
      <point x="132" y="153"/>
    </contour>
    <contour>
      <point x="436" y="390" type="qcurve"/>
      <point x="170" y="94" type="line"/>
      <point x="203" y="68"/>
      <point x="262" y="69" type="qcurve" smooth="yes"/>
      <point x="327" y="69"/>
      <point x="409" y="141"/>
      <point x="426" y="224" type="qcurve" smooth="yes"/>
      <point x="438" y="282" type="line" smooth="yes"/>
      <point x="444" y="309"/>
      <point x="444" y="339" type="qcurve" smooth="yes"/>
      <point x="444" y="367"/>
    </contour>
  </outline>
</glyph>
<glyph name="thorn" format="2">
  <advance width="584"/>
  <unicode hex="00FE"/>
  <outline>
    <contour>
      <point x="165" y="707" type="line"/>
      <point x="252" y="707" type="line"/>
      <point x="200" y="459" type="line"/>
      <point x="266" y="534"/>
      <point x="359" y="534" type="qcurve" smooth="yes"/>
      <point x="441" y="534"/>
      <point x="541" y="441"/>
      <point x="541" y="353" type="qcurve" smooth="yes"/>
      <point x="541" y="317"/>
      <point x="532" y="278" type="qcurve" smooth="yes"/>
      <point x="519" y="219" type="line" smooth="yes"/>
      <point x="495" y="105"/>
      <point x="368" y="-9"/>
      <point x="273" y="-9" type="qcurve" smooth="yes"/>
      <point x="162" y="-9"/>
      <point x="116" y="72" type="qcurve"/>
      <point x="68" y="-157" type="line"/>
      <point x="-18" y="-157" type="line"/>
    </contour>
    <contour>
      <point x="433" y="223" type="qcurve" smooth="yes"/>
      <point x="445" y="281" type="line" smooth="yes"/>
      <point x="451" y="314"/>
      <point x="452" y="338" type="qcurve" smooth="yes"/>
      <point x="452" y="397"/>
      <point x="387" y="455"/>
      <point x="335" y="455" type="qcurve" smooth="yes"/>
      <point x="268" y="455"/>
      <point x="179" y="368"/>
      <point x="165" y="298" type="qcurve" smooth="yes"/>
      <point x="154" y="245" type="line" smooth="yes"/>
      <point x="147" y="214"/>
      <point x="146" y="188" type="qcurve" smooth="yes"/>
      <point x="146" y="133"/>
      <point x="212" y="69"/>
      <point x="271" y="69" type="qcurve" smooth="yes"/>
      <point x="399" y="68"/>
    </contour>
  </outline>
</glyph>
<glyph name="caron" format="2">
  <advance width="512"/>
  <unicode hex="02C7"/>
  <outline>
    <contour>
      <point x="189" y="728" type="line"/>
      <point x="267" y="728" type="line"/>
      <point x="331" y="635" type="line"/>
      <point x="434" y="728" type="line"/>
      <point x="519" y="728" type="line"/>
      <point x="356" y="579" type="line"/>
      <point x="289" y="579" type="line"/>
    </contour>
  </outline>
</glyph>
<glyph name="perthousand" format="2">
  <advance width="1416"/>
  <unicode hex="2030"/>
  <outline>
    <contour>
      <point x="83" y="329"/>
      <point x="83" y="382" type="qcurve" smooth="yes"/>
      <point x="83" y="410"/>
      <point x="90" y="441" type="qcurve" smooth="yes"/>
      <point x="115" y="554" type="line" smooth="yes"/>
      <point x="131" y="633"/>
      <point x="214" y="714"/>
      <point x="285" y="714" type="qcurve" smooth="yes"/>
      <point x="345" y="714"/>
      <point x="411" y="658"/>
      <point x="411" y="607" type="qcurve" smooth="yes"/>
      <point x="411" y="583"/>
      <point x="403" y="551" type="qcurve" smooth="yes"/>
      <point x="380" y="438" type="line" smooth="yes"/>
      <point x="363" y="354"/>
      <point x="280" y="272"/>
      <point x="208" y="272" type="qcurve" smooth="yes"/>
      <point x="148" y="272"/>
    </contour>
    <contour>
      <point x="755" y="709" type="line"/>
      <point x="833" y="709" type="line"/>
      <point x="305" y="0" type="line"/>
      <point x="228" y="0" type="line"/>
    </contour>
    <contour>
      <point x="288" y="387"/>
      <point x="300" y="441" type="qcurve" smooth="yes"/>
      <point x="322" y="543" type="line" smooth="yes"/>
      <point x="328" y="573"/>
      <point x="328" y="592" type="qcurve" smooth="yes"/>
      <point x="328" y="644"/>
      <point x="274" y="644" type="qcurve" smooth="yes"/>
      <point x="240" y="644"/>
      <point x="205" y="598"/>
      <point x="194" y="546" type="qcurve" smooth="yes"/>
      <point x="172" y="445" type="line" smooth="yes"/>
      <point x="165" y="409"/>
      <point x="165" y="395" type="qcurve" smooth="yes"/>
      <point x="165" y="342"/>
      <point x="219" y="342" type="qcurve" smooth="yes"/>
      <point x="254" y="342"/>
    </contour>
    <contour>
      <point x="649" y="50"/>
      <point x="649" y="103" type="qcurve" smooth="yes"/>
      <point x="649" y="131"/>
      <point x="656" y="163" type="qcurve" smooth="yes"/>
      <point x="680" y="275" type="line" smooth="yes"/>
      <point x="697" y="355"/>
      <point x="779" y="435"/>
      <point x="851" y="435" type="qcurve" smooth="yes"/>
      <point x="911" y="435"/>
      <point x="976" y="380"/>
      <point x="976" y="329" type="qcurve" smooth="yes"/>
      <point x="976" y="310"/>
      <point x="970" y="272" type="qcurve" smooth="yes"/>
      <point x="946" y="160" type="line" smooth="yes"/>
      <point x="928" y="76"/>
      <point x="845" y="-6"/>
      <point x="774" y="-6" type="qcurve" smooth="yes"/>
      <point x="714" y="-6"/>
    </contour>
    <contour>
      <point x="1046" y="50"/>
      <point x="1046" y="103" type="qcurve" smooth="yes"/>
      <point x="1046" y="131"/>
      <point x="1053" y="163" type="qcurve" smooth="yes"/>
      <point x="1076" y="275" type="line" smooth="yes"/>
      <point x="1093" y="355"/>
      <point x="1176" y="435"/>
      <point x="1247" y="435" type="qcurve" smooth="yes"/>
      <point x="1307" y="435"/>
      <point x="1372" y="380"/>
      <point x="1372" y="329" type="qcurve" smooth="yes"/>
      <point x="1372" y="310"/>
      <point x="1366" y="272" type="qcurve" smooth="yes"/>
      <point x="1342" y="160" type="line" smooth="yes"/>
      <point x="1324" y="76"/>
      <point x="1241" y="-6"/>
      <point x="1170" y="-6" type="qcurve" smooth="yes"/>
      <point x="1110" y="-6"/>
    </contour>
    <contour>
      <point x="854" y="109"/>
      <point x="865" y="163" type="qcurve" smooth="yes"/>
      <point x="887" y="264" type="line" smooth="yes"/>
      <point x="894" y="298"/>
      <point x="894" y="313" type="qcurve" smooth="yes"/>
      <point x="894" y="365"/>
      <point x="840" y="366" type="qcurve" smooth="yes"/>
      <point x="806" y="366"/>
      <point x="771" y="321"/>
      <point x="759" y="267" type="qcurve" smooth="yes"/>
      <point x="737" y="166" type="line" smooth="yes"/>
      <point x="731" y="137"/>
      <point x="731" y="117" type="qcurve" smooth="yes"/>
      <point x="731" y="63"/>
      <point x="784" y="62" type="qcurve" smooth="yes"/>
      <point x="819" y="62"/>
    </contour>
    <contour>
      <point x="1250" y="109"/>
      <point x="1262" y="163" type="qcurve" smooth="yes"/>
      <point x="1283" y="264" type="line" smooth="yes"/>
      <point x="1290" y="298"/>
      <point x="1290" y="313" type="qcurve" smooth="yes"/>
      <point x="1290" y="365"/>
      <point x="1236" y="366" type="qcurve" smooth="yes"/>
      <point x="1202" y="366"/>
      <point x="1167" y="321"/>
      <point x="1155" y="267" type="qcurve" smooth="yes"/>
      <point x="1134" y="166" type="line" smooth="yes"/>
      <point x="1128" y="137"/>
      <point x="1127" y="117" type="qcurve" smooth="yes"/>
      <point x="1127" y="63"/>
      <point x="1181" y="62" type="qcurve" smooth="yes"/>
      <point x="1215" y="62"/>
    </contour>
  </outline>
</glyph>
